<svg xmlns="http://www.w3.org/2000/svg" width="196.63mm" height="75.56mm" viewBox="0 0 557.38 214.2"><defs><style>.cls-1{fill:#e8361d;}</style></defs><g id="レイヤー_2" data-name="レイヤー 2"><g id="レイヤー_1-2" data-name="レイヤー 1"><path class="cls-1" d="M554.35,51.83h0l-.12-1.94a17.76,17.76,0,0,1,.08-2.41c.47-3-5.88-3.62-9.22-5.29-2.69-1.34-7.26-.07-11.28.34-10,1-11.49-.25-5.65-4.34a5.75,5.75,0,0,0,1.26-1.52h0c9.56-2.79,18.26-5.75,18.49-10.49,0-.3.64-.67.93-1,3.44-4,3.46-4.09-7-3.21-4.84.4-9.2.37-11.86-.76-4.37-1.84-10.43-2.78-16.22-3.75-7.42-1.25-15.45-2.34-25.41-1.4-15.66,1.48-31.18,3-46.31,8-7.84,2.56-16.8,4.33-24.83,6.9a67.87,67.87,0,0,1-7.41,1.4h0c-1.39-.7-4-.56-6.08-.76-.65-2.15-.53-4.43-2.52-6.33-5-4.78-17.73-3.7-29.92-3l-8.35-.33h0l-.33-.06c-.9-.62-2.47-.71-4.55-.39L355.27,21c-.22-.37-.44-.73-.65-1.1h0c.16-.52.32-1.05.49-1.57,7.66-2.61,15.4-5.2,19.27-9,7.78-2.45,11.55-5.85,19.18-9.29-11.22,0-17,3.1-23.2,5.7h0c-8.3,2-14.52,5.16-22.14,7.52h0c-8.26,2.13-16.74,4.05-24.29,6.82l-2.37.69L318.33,22h0c-5.69,1.87-12.11,3.29-17,5.67h0c-22.31,6.52-45.07,12.67-66.75,19.71-4.44,1-8.68,2.08-11.82,3.89-3.54.68-7.28,1.16-10,2.67h0c-2.65.55-5.42,1-7.31,2.16-2.8.49-5.57,1-7.52,2.21h0A12.16,12.16,0,0,0,193.14,60h0a18.65,18.65,0,0,0-7.24,2.31C170.41,66.38,155.62,71,141,75.76c-6,1.93-11,4.67-18,5.72-4.27.65-7.11,1.67-9.43,3.27s-5.58,2.57-9.21,3.63c-5.8,1.69-11.23,3.69-16.82,5.56h0A20.45,20.45,0,0,0,80.45,97c-4.08,1.29-8.39,2.49-10.59,4.5h0l-1.93,1.17-2.4,1.51-.16,0c-3.07.61-4.78,1.91-7.31,2.74-10.67,3.49-17,7.29-14.91,11.86.12.28-.19.65-.3,1-.09,5.49-.09,5.49,13.28,5.39.76,0,1.57-.07,2.37-.11h0l2.32.57h0c1.84,1.73,1.26,3.49-4.11,5.3-6.48,1-9.3,3.64-14.1,5.38h0c-8.8,1.93-15.75,5-18.49,8.38a8.32,8.32,0,0,0-1.54,7.78c.84,2.85-1.91,5.19-6.75,7.7-1.57.81-2.84,1.54-3,2.42h0c-2.18,2.15-3.66,4.27-9.86,5.88-3.49.91-3.95,2.28-1.13,3.28,8.12,2.86,17.49,4.59,30.38,4.55,8.29,0,14.87-.59,21.67-3.76h0c11.65-4.32,23.4-8.58,36.6-11.88l.08,0c2.2-.32,4.24-.76,5.52-1.74h0c7.17-1.47,12.87-4,19.17-6.06l9.51-1.43h0c.27,2.19-4.49,3.4-8.25,4.85-5.78,2.23-12.66,4.15-15.38,7.31h0c-.52.66-1.68,1.46-1.46,2,1.33,3.24-3.06,5.78-10.43,8.37-4.26,1.49-8.63,3.2-11.28,5.3-3.6,1.32-7.52,2.52-10,4.26-1.33.93-2,2.11.52,1.88,5.44-.51,6,1.88,10.79,1.57h0c8.16.41,15.84-1.73,23.66-3.83,4.71-1.27,9.21-3.49,14.84-3.06-.58,2.7-7.4,4.06-10,6.17-10.31,3.91-20,8.07-29.22,12.39L41,214.2c18.91-1.43,32-6.9,46.39-10.14l1.26-.19,1.24-.27c3-.27,5.86-.76,7.92-2.08h0c4.86-.27,8.83-.75,13.18-3,4.81-2.5,11.79-4.34,18.41-6.09h0c3.19.47,5.89-.28,9.08-1.48a144.31,144.31,0,0,1,22.14-6.73c6.91-1.46,15.64-2.74,20.39-6.68,2.2-1.83,8.15-2.39,12.71-2.33h0c.08.25.34.45.79.6h0c-4.87,4.68-1.63,9.2-10.15,14-1.35.76-.19,1.56.61,2.21a14.51,14.51,0,0,0,8.45,3.47c3.5.42,6.81,1,6.82,2.83.05,2.06.54,3.88,7.87,2.82,2.65-.38,4.35.29,6.47.5a38.83,38.83,0,0,0,18.63-2.58,8.65,8.65,0,0,0,1-.42,245.56,245.56,0,0,0,32.17-11,12.75,12.75,0,0,0,2.13-.5l15.87-4.94c1.25-.32,2.52-.73,3.68-1.15h0c3.77-1.13,7.83-2.11,11.23-3.41,7.51-2.88,18-3.86,23.67-7.83l2.23-.81a17.87,17.87,0,0,1,3-1.21c17.4-3.84,31-10,46-15.38,6.06-1.15,12.75-1.95,14.69-5.29,1.92-.45,4-.81,5.09-1.74l.25,0a27.06,27.06,0,0,0,10.19-3.49,48.13,48.13,0,0,0,15.65-4.9c4.34-2.31,12.19-1.24,15.66-4.33,11.91-1.87,21.42-6.36,33.11-8.61,3.64-.69,5.74-2.45,6.44-4.12,2.33-5.6-3.7-9.7-16.38-10.22-5-.2-9.19-.87-13.9-1.21h0c0-2,4.17-3,7.85-4.37,5.91-2.12,6.38-3.16,2-4.41s-8.41-2.76-15.87-2.15c-5.09.42-7.56-1-8.2-2.71-.85-2.26,6.2-1.74,8-3.23.2-.17.43-.33.65-.5h0a45.79,45.79,0,0,1,8.85-2.71c2.92-.55,5.65-1.21,6.7-2.62h0c5.61-1.2,11.73-1.9,15.51-4.69,1.75-1.29,4.67-1.68,7.87-1.82C484,79,490,78.54,491.5,75c.3-.73,1.91-1.38,3.73-1.31A20.54,20.54,0,0,0,508,70.08c3.24-2,7.42-2.83,12.27-3.54,7.92-1.17,15.87-2.58,20.38-6.33A4,4,0,0,0,543,58.7l4.68-.94,2.54-.48,1.25-.13,1.2-.31h0C560.31,54.55,557,53.22,554.35,51.83Zm-442,62.68.06,0-.36,0Zm1.7.36.21,0-.09,0ZM266.62,49.13h0l.08,0h0l-.12.06Zm36.75-12.87Zm0,0h0Zm-166,77.84,0,0,.1,0h.08Zm160.57,40.7-.12,0a.26.26,0,0,0-.09,0l-.06,0c.75-.46,1.45-.93,2.09-1.39C299.63,153.8,299.13,154.26,297.91,154.8ZM435,58.54a6.31,6.31,0,0,1-1.44,0l1.46-.08A.64.64,0,0,1,435,58.54ZM356.9,79.17l-.11,0,.31-.2Zm29.47,11.32.19,0,0,0Zm-51.16,13.65h0Zm-60.8-.83a1.93,1.93,0,0,1,.33-1.17C275,102.5,274.89,102.89,274.41,103.31ZM272,99s0-.05,0-.09h.08Zm2.13,11.34h.35l-.28.07Zm118-24.6.68-1a6.65,6.65,0,0,1,2.16,0C393.89,85.15,393,85.49,392.21,85.78Zm-158.72,30.1-.58.11.45-.2Zm0,0v0l.12-.06Zm2.15,13.25v0h0l0,0,0,0s0,0,0,0,0,0,0,0Zm59.85,0,.3-.06a1.27,1.27,0,0,1-.3.11S295.51,129.15,295.51,129.13ZM429.43,65.67a.82.82,0,0,0-.11-.28l.5-.07A1.69,1.69,0,0,1,429.43,65.67ZM212.18,132a4.75,4.75,0,0,1-1.71.6c-1.22-.63-1.8-1.15-2.57-1.57A7.46,7.46,0,0,1,212.18,132Zm97.57-9h0c-.11.08-.18.17-.28.25l-.78,0C309,123.08,309.37,123,309.75,122.93Zm91.4-46.31c.61-.35,1.17-.71,1.68-1.07A6.87,6.87,0,0,1,401.15,76.62Zm30-7.22-.4.15ZM277.4,83.31a.15.15,0,0,1,0,.07h0l-.1,0ZM160.1,103l-.14,0,.17,0Zm-1.25-.2s0,0-.07,0h.07ZM143,114l-.19.11s0,0,0,0ZM183,134.92l-.77-.22A5.55,5.55,0,0,1,183,134.92Zm16.21,2.25a.4.4,0,0,1,0,.19l-.36-.27Zm-1.7,11.88h0c-.09.13,0,.19.17.21h-.42Zm27.74-4.52c0,.07.08.12.11.19a1.55,1.55,0,0,1-.29-.14Zm-34.58-37.25h0l-.36.08.14-.09Zm-31.77-4.55h0Zm-21,11.08-.25.1.22-.1.11,0Zm205.14,24.07.12,0a1,1,0,0,1-.33.09ZM301.8,42.48l-.25,0,.22-.06h0ZM298,44.36a6.7,6.7,0,0,1,2.39-1.53A7,7,0,0,1,298,44.36ZM225.23,159.21l.4.09a2.48,2.48,0,0,1-.77,0ZM278.39,149a7.53,7.53,0,0,1,2,.33c-1.19,0-2.41,0-3.68.07A4.48,4.48,0,0,1,278.39,149Zm7.41,7.75.16,0h-.16ZM413.43,81.08a3.39,3.39,0,0,1,.44-.27l.53,0Zm52.88-53.44a2,2,0,0,1,.54.17,1.15,1.15,0,0,1,.23.18c-.25-.1-.54-.19-.84-.28A.46.46,0,0,1,466.31,27.64ZM254.68,169l.19,0-.11.05Zm253.12-134,.09,0-.09,0ZM389.87,42.61h0l-.23-.06.21,0s0,.06,0,.1Zm-7-16.37c-.28.05-.55.08-.8.1,0,0,0,0,0,0l.27-.14A3.86,3.86,0,0,0,382.9,26.24ZM96.35,104.89a5.5,5.5,0,0,1,.75.15A5.83,5.83,0,0,1,96.35,104.89Zm89.75,46.63a1.82,1.82,0,0,0-.11.3,14.65,14.65,0,0,0-1.53.23C185,151.88,185.57,151.71,186.1,151.52Zm76.36,15.17.08-.05h0l0,0Zm4.61,1.21a8.58,8.58,0,0,1-2.93,0C265,167.89,266,167.9,267.07,167.9ZM407.52,39.73h-.08l.08,0S407.52,39.72,407.52,39.73Zm-47-14.09s0-.08,0-.12l.3,0ZM196.16,69.36a17.36,17.36,0,0,1-3.78,1,12.69,12.69,0,0,0,2.88-1.72C196.12,68.7,196.64,68.84,196.16,69.36ZM140.75,88l-.22,0s0,0,0,0Zm-26.53,26.92a.24.24,0,0,1-.13-.08l.18.08ZM338.48,27.64h-.22l.08,0ZM249,52l0,0v0ZM122.47,104.32h0c.78.32-.93,1.31-2.79,1.71-1.7.36-2.35.22-2.66-.07C119.21,105.31,121,104.78,122.47,104.32Z"/></g></g></svg>