<svg xmlns="http://www.w3.org/2000/svg" width="201.07mm" height="51.48mm" viewBox="0 0 569.95 145.92"><defs><style>.cls-1{fill:#f4a637;}</style></defs><g id="レイヤー_2" data-name="レイヤー 2"><g id="レイヤー_1-2" data-name="レイヤー 1"><path class="cls-1" d="M5.68,43.43h0c-.15.63-.31,1.26-.46,1.89a17.44,17.44,0,0,1-.81,2.26c-1.35,2.72,4.51,5.24,7.19,7.83,2.16,2.09,6.9,2.27,10.85,3.09,9.81,2,10.88,3.7,4.08,5.84a5.73,5.73,0,0,0-1.66,1.07h0c-10-.23-19.15,0-20.79,4.41-.11.28-.82.45-1.2.69-4.49,2.79-4.53,2.85,5.7,5.17,4.73,1.08,8.88,2.43,11.07,4.3,3.61,3.08,9.11,5.81,14.33,8.49,6.7,3.43,14,6.89,23.8,9,15.38,3.32,30.64,6.53,46.55,6.4,8.26-.07,17.32.94,25.76.93a65.79,65.79,0,0,1,7.49.89h0c1.11,1.09,3.62,1.74,5.56,2.57,0,2.24-.83,4.38.49,6.79,3.34,6.08,15.79,8.88,27.61,11.93l7.86,2.83h0l.29.16c.67.87,2.15,1.43,4.22,1.76l2.53,1.27c.1.42.19.83.29,1.25h0l-1,1.35c-8.09.17-16.25.3-21.08,2.76-8.16,0-12.78,2.08-21.1,3,10.71,3.35,17.15,2.18,23.84,1.58h0c8.51.64,15.4-.53,23.38-.48h0c8.52.47,17.18,1.2,25.22.84l2.46.05,3.43-.22h0c6-.06,12.52.53,17.87-.28h0c23.24.53,46.79,1.54,69.58,1.39,4.53.4,8.91.63,12.45-.15,3.58.43,7.29,1.1,10.35.49h0c2.69.27,5.47.69,7.61.15,2.83.38,5.63.71,7.84.16h0a12.31,12.31,0,0,0,5.1-.14h0a18.68,18.68,0,0,0,7.59,0c16,.78,31.5.84,46.92.73,6.25,0,11.86-1.14,18.85,0,4.27.68,7.28.57,10-.26s6.1-.76,9.88-.68c6,.14,11.82-.12,17.71-.21h0a20.68,20.68,0,0,0,7.69-.81c4.27,0,8.75.15,11.45-1.09h0l2.19-.53,2.75-.72.15.07c3.11.34,5.13-.38,7.79-.4,11.23-.11,18.41-1.82,17.8-6.81,0-.3.37-.56.58-.84,1.74-5.21,1.75-5.21-11-9.15-.73-.22-1.52-.41-2.29-.61h0l-2.05-1.24h0c-1.24-2.21-.15-3.71,5.52-3.81,6.46,1,10-.67,15.07-.88h0c9,.82,16.52,0,20.15-2.4a8.31,8.31,0,0,0,3.82-6.94c0-3,3.39-4.37,8.76-5.31,1.74-.3,3.17-.61,3.59-1.4h0c2.73-1.39,4.78-3,11.17-2.63,3.6.19,4.47-1,2.08-2.78-6.88-5.18-15.29-9.67-27.6-13.52-7.91-2.47-14.35-3.93-21.79-3h0c-12.41.61-24.89,1.11-38.47.27h-.09c-2.2-.36-4.27-.55-5.79,0h0c-7.28-.77-13.47-.1-20.11,0l-9.49-1.5h0c.4-2.18,5.31-1.89,9.33-2.14,6.18-.37,13.32-.13,16.86-2.32h0c.7-.48,2-.88,2-1.45-.29-3.48,4.66-4.59,12.47-4.82,4.51-.14,9.19-.44,12.35-1.65,3.84-.17,7.93-.12,10.84-1,1.55-.48,2.53-1.41.07-1.94-5.34-1.15-5.14-3.61-9.81-4.76h0c-7.65-2.86-15.62-3.14-23.71-3.49-4.87-.22-9.83.54-15.07-1.57,1.37-2.4,8.28-1.63,11.36-2.88,11-.61,21.48-1.65,31.59-3l40.62-3.52c-18.46-4.35-32.61-3.1-47.29-4.35l-1.25-.2-1.26-.12c-3-.66-5.83-1.05-8.18-.41h0c-4.71-1.21-8.64-2-13.47-1.11-5.34.93-12.55.58-19.39.24h0c-2.9-1.41-5.7-1.51-9.1-1.33a144.55,144.55,0,0,1-23.14-.27c-7-.71-15.74-2.12-21.45.2-2.65,1.08-8.49-.18-12.83-1.61h0q0-.4-.57-.81h0c6.06-3,4.33-8.28,13.91-10.29,1.51-.31.65-1.43.09-2.29a14.6,14.6,0,0,0-7-5.86c-3.21-1.46-6.2-3-5.65-4.76.58-2,.65-3.86-6.65-5.06-2.65-.44-4-1.59-6-2.43A38.76,38.76,0,0,0,356.34.13a7.89,7.89,0,0,0-1.07.1,248.5,248.5,0,0,0-34,.78A12.59,12.59,0,0,0,319.1.85L302.48.76c-1.29-.07-2.63-.06-3.86,0h0c-3.93-.06-8.11-.35-11.74-.13-8,.47-18.28-1.75-24.92.31L259.59,1a16.07,16.07,0,0,1-3.22.25c-17.75-1.59-32.58.22-48.5.77-6.12-.74-12.74-2-15.6.6-2-.15-4.05-.42-5.38.12l-.24,0a27.18,27.18,0,0,0-10.77.24,48,48,0,0,0-16.4,0c-4.84.89-12-2.5-16.24-.61C131.32.47,120.9,1.87,109.08.48c-3.68-.43-6.21.61-7.38,2-3.92,4.64.6,10.37,12.52,14.69,4.67,1.69,8.5,3.61,12.89,5.36h0c-.65,1.92-4.9,1.64-8.8,1.79-6.27.23-7,1.08-3.2,3.61s7.19,5.17,14.48,6.85c5,1.14,6.9,3.24,7,5.06.13,2.41-6.44-.21-8.56.67l-.76.29h0A46.49,46.49,0,0,1,118,40.7c-3-.36-5.75-.55-7.18.47h0c-5.72-.55-11.77-1.73-16.21-.22-2.06.7-5,.19-8.05-.64-5.66-1.53-11.5-2.91-14,0-.52.61-2.24.74-4,.12A20.52,20.52,0,0,0,55.39,40c-3.69.93-7.93.45-12.76-.33-7.91-1.28-15.91-2.35-21.34-.12a3.92,3.92,0,0,0-2.74.71l-4.74-.51-2.57-.32L10,39.22l-1.23-.07h0C.83,39,3.63,41.32,5.68,43.43ZM446,117.23l-.05,0,.35.12Zm-1.5-.86-.2-.08h.1ZM279.15,132.93H279l.13,0Zm-38.91,1.17Zm0,0h0Zm181.79-24,0,0h-.19ZM281.25,22.75h.13s0,.05.07.07l.06,0c-.86.21-1.66.44-2.42.69C279.31,23.18,279.92,22.89,281.25,22.75ZM121.48,73.09a5.8,5.8,0,0,1,1.38.43l-1.41-.37ZM202.17,77h.11l-.35.1ZM177.5,57.32l-.17-.08h0Zm52.89,2.45h0ZM288.1,78.94a2,2,0,0,1-.67,1C287.33,79.53,287.51,79.19,288.1,78.94Zm1,4.78a.1.1,0,0,1,0,.09l-.07,0A.23.23,0,0,1,289.07,83.72Zm1.4-11.46-.34-.09.3,0A.25.25,0,0,0,290.47,72.26Zm-120-12.21q-.48.39-1,.75a6.39,6.39,0,0,1-2.07-.6C168.72,60.15,169.71,60.11,170.51,60.05ZM330.9,79.31l.59.07-.49.05Zm0,0v0l-.14,0A.59.59,0,0,1,330.89,79.27Zm2-13.29s0,0,0,0v0h0s0,0,0,0a0,0,0,0,1,0,0Zm-57.06-18-.31,0,.32,0S275.79,47.92,275.79,47.94ZM129,68a.83.83,0,0,0,0,.31l-.5-.09A1.65,1.65,0,0,1,129,68Zm227.12,2.45a4.59,4.59,0,0,1,1.82,0c1,1,1.36,1.64,2,2.27A7.56,7.56,0,0,1,356.07,70.42ZM260.34,49.56h0l.35-.15c.25.08.5.18.74.25ZM159.21,66.08q-1,.24-1.92.51A7.07,7.07,0,0,1,159.21,66.08Zm-30.82-2.19.44,0ZM279.2,97.1s0,0,0-.07h0l.09.06ZM397,113.78l.13.07-.15-.06Zm1.13.57s0,.05.06.07l-.07,0Zm18.46-5.91.22,0v0Zm-31.74-32,.67.45A6.48,6.48,0,0,1,384.81,76.42Zm-14.77-7a.4.4,0,0,1,0-.19,3.18,3.18,0,0,0,.27.37A3,3,0,0,1,370,69.38Zm5.21-10.8h0c.11-.1,0-.19-.1-.26l.39.12h0ZM347.44,54.5a1.74,1.74,0,0,0-.05-.22,1.31,1.31,0,0,1,.24.23Zm21.71,46h0l.36,0-.15.05Zm28.91,13.94h0Zm23.32-4.23.27,0-.24,0h0ZM233.1,25.24l-.11-.06a1,1,0,0,1,.34,0Zm10.5,103.4.24.12h-.25Zm4.19-.64a7,7,0,0,1-2.74.74A6.82,6.82,0,0,1,247.79,128ZM351.86,40.5l-.34-.2a2.41,2.41,0,0,1,.73.22A1.64,1.64,0,0,1,351.86,40.5Zm-53.74-6.35a7.46,7.46,0,0,1-1.84-.92c1.12.37,2.3.73,3.53,1.05A4.42,4.42,0,0,1,298.12,34.15Zm-4.73-9.63-.15-.06.16.05ZM148.86,58.13l-.51.12-.51-.11Zm-66.56,35a2,2,0,0,1-.46-.33,1.07,1.07,0,0,1-.17-.24c.22.17.46.35.72.52ZM326.75,22.25l-.19,0,.12,0ZM45,73.47l-.08,0H45Zm114.69,28.44h0l.19.12-.21,0s0-.06,0-.09Zm1.7,17.71a8,8,0,0,1,.79.15s0,0,0,0l-.31,0A3.89,3.89,0,0,0,161.39,119.62Zm296.92,11.6a6.25,6.25,0,0,1-.66-.37A4.86,4.86,0,0,1,458.31,131.22ZM386.85,59.66l.19-.26c.45.1,1,.18,1.53.25C388,59.64,387.41,59.64,386.85,59.66ZM318.64,22.13h-.09l.07,0Zm-4-2.55a8.4,8.4,0,0,1,2.78.92C316.59,20.22,315.64,19.9,314.61,19.58ZM142,99.33h0l.08,0H142A0,0,0,0,0,142,99.33ZM182.55,127l-.05.11-.27-.13Zm169.88,8a17.78,17.78,0,0,1,3.92.15,12.91,12.91,0,0,0-3.27.76C352.27,135.57,351.82,135.29,352.43,134.93Zm58.44-1,.23,0,0,0Zm33.42-17.64a.26.26,0,0,1,.1.11,1.66,1.66,0,0,1-.14-.13ZM204.16,131.71l.22,0-.1,0Zm92.66,3.84h0v0Zm136.42-11.68s0,0,0,0c-.65-.54,1.28-1,3.17-.78,1.73.17,2.31.49,2.52.87Z"/></g></g></svg>