<svg xmlns="http://www.w3.org/2000/svg" width="199.69mm" height="65mm" viewBox="0 0 566.05 184.26"><defs><style>.cls-1{fill:#b266a6;}</style></defs><g id="レイヤー_2" data-name="レイヤー 2"><g id="レイヤー_1-2" data-name="レイヤー 1"><path class="cls-1" d="M563.27,67.51h0l.06-1.94a19.54,19.54,0,0,1,.31-2.39c.77-2.93-5.49-4.18-8.66-6.16-2.54-1.6-7.21-.79-11.25-.77-10,0-11.41-1.36-5.2-4.87.72-.4,1-.92,1.4-1.38h0c9.79-1.85,18.74-4,19.42-8.64,0-.3.71-.61,1-.92,3.81-3.66,3.84-3.73-6.65-3.88-4.85-.07-9.18-.53-11.72-1.9-4.17-2.27-10.11-3.79-15.78-5.32-7.26-2-15.15-3.84-25.15-3.87-15.74-.06-31.33,0-46.87,3.41-8.06,1.78-17.14,2.68-25.38,4.45a66.32,66.32,0,0,1-7.52.67h0c-1.31-.83-3.9-1-6-1.35-.44-2.2-.1-4.46-1.89-6.54-4.53-5.25-17.29-5.41-29.49-5.94L375.69,19h0l-.32-.09c-.84-.71-2.4-1-4.5-.84l-2.73-.73-.54-1.15h0c.21-.51.43-1,.64-1.52,7.88-1.85,15.83-3.67,20.06-7.08,8-1.67,12.06-4.69,20-7.37-11.17-1-17.24,1.43-23.65,3.41h0c-8.45,1.14-15,3.72-22.77,5.34h0c-8.43,1.3-17.06,2.39-24.84,4.41l-2.43.46-3.3.93h0c-5.84,1.3-12.36,2.09-17.43,4h0C291,23.1,267.74,27,245.48,31.89c-4.51.54-8.84,1.23-12.14,2.72-3.59.33-7.36.45-10.22,1.68h0c-2.68.29-5.49.46-7.47,1.44-2.85.21-5.65.46-7.71,1.47h0a12.12,12.12,0,0,0-5,1.19h0A18.75,18.75,0,0,0,195.55,42c-15.82,2.57-31,5.72-46,9-6.11,1.35-11.37,3.58-18.44,4-4.32.23-7.24,1-9.7,2.33s-5.81,2-9.53,2.72c-5.94,1.11-11.54,2.57-17.28,3.89h0a20.45,20.45,0,0,0-7.35,2.39c-4.18.88-8.59,1.66-11,3.44h0l-2,1L71.67,72l-.17,0c-3.11.31-4.94,1.43-7.53,2-11,2.44-17.63,5.6-16,10.35.09.3-.25.63-.39,1C47,90.7,47,90.71,60.26,91.9c.77.07,1.58.09,2.37.13h0l2.26.79h0c1.66,1.9.91,3.6-4.61,4.87-6.54.32-9.6,2.72-14.56,4h0c-8.94,1.06-16.16,3.44-19.22,6.53a8.33,8.33,0,0,0-2.28,7.59c.56,2.93-2.41,5-7.47,7-1.64.66-3,1.26-3.22,2.12h0c-2.39,1.92-4.07,3.89-10.39,4.89C-.42,130.38-1,131.7,1.69,133c7.8,3.64,17,6.28,29.8,7.49,8.25.78,14.86.87,21.93-1.63h0c12-3.17,24.12-6.26,37.58-8.26l.08,0c2.23-.1,4.3-.35,5.67-1.19h0c7.28-.77,13.19-2.71,19.67-4.16l9.6-.51h0c.06,2.22-4.8,3-8.68,4-6,1.65-13,2.89-16,5.77h0c-.59.62-1.81,1.29-1.65,1.84,1,3.35-3.6,5.45-11.2,7.3-4.38,1.08-8.9,2.35-11.74,4.19-3.71,1-7.73,1.76-10.38,3.26-1.42.79-2.18,1.9.33,1.91,5.46,0,5.78,2.46,10.59,2.63h0c8.08,1.2,15.93-.19,23.92-1.52,4.81-.8,9.5-2.57,15.06-1.59-.84,2.62-7.76,3.31-10.51,5.17-10.64,2.89-20.67,6.08-30.29,9.48L36.47,179c19,.42,32.55-3.74,47.16-5.56l1.28-.07,1.25-.15c3,0,5.92-.18,8.09-1.29h0c4.87.2,8.86.11,13.41-1.72,5-2,12.16-3.17,18.91-4.26h0c3.14.77,5.9.3,9.18-.59a145,145,0,0,1,22.7-4.54c7-.77,15.84-1.2,20.94-4.66,2.37-1.6,8.34-1.58,12.88-1.08h0c.06.26.3.49.73.67h0c-5.31,4.19-2.52,9-11.47,13-1.41.63-.34,1.53.39,2.26a14.58,14.58,0,0,0,8.08,4.28c3.44.75,6.68,1.62,6.51,3.48-.16,2.05.16,3.91,7.56,3.57,2.67-.12,4.29.72,6.38,1.13a38.83,38.83,0,0,0,18.8-.75,10.16,10.16,0,0,0,1-.32,247.18,247.18,0,0,0,33.09-7.83,13.55,13.55,0,0,0,2.16-.29l16.28-3.37c1.27-.2,2.58-.48,3.77-.78h0c3.85-.76,8-1.35,11.51-2.31,7.75-2.13,18.25-2.08,24.31-5.48l2.3-.59a17.45,17.45,0,0,1,3.09-.91c17.7-2.13,31.83-7,47.29-10.83,6.14-.55,12.88-.69,15.14-3.83,1.95-.26,4-.42,5.23-1.23h.25a27.34,27.34,0,0,0,10.48-2.48,47.92,47.92,0,0,0,16.05-3.36c4.55-1.87,12.26,0,16-2.78,12-.7,21.93-4.24,33.79-5.33,3.68-.34,5.94-1.88,6.8-3.48,2.87-5.35-2.74-10-15.3-11.77-4.92-.68-9.06-1.76-13.72-2.56h0c.23-2,4.45-2.62,8.24-3.58,6.08-1.53,6.66-2.52,2.37-4.2s-8.1-3.56-15.58-3.69c-5.1-.08-7.43-1.73-7.9-3.5-.62-2.33,6.34-1.12,8.23-2.43l.69-.44h0A47.48,47.48,0,0,1,454,93.51c3-.25,5.74-.65,6.92-1.94h0c5.7-.66,11.86-.76,15.89-3.16,1.87-1.11,4.81-1.22,8-1,5.85.32,11.86.45,13.66-2.91.37-.71,2-1.2,3.84-.95a20.54,20.54,0,0,0,13.06-2.36c3.41-1.68,7.66-2.08,12.55-2.32,8-.39,16.05-1,20.9-4.32a4,4,0,0,0,2.53-1.26l4.74-.49,2.58-.22h1.26l1.22-.19h0C568.93,70.8,565.71,69.15,563.27,67.51ZM117.21,86.79l.06,0-.37,0Zm1.65.52.21,0-.09,0ZM277.17,36.77h0l.08,0h0l-.12.05ZM315,27.54h0Zm0,0h0ZM142.17,88.82a.08.08,0,0,0,0,0l.11,0h.07ZM298,145l-.13,0-.09-.06-.06,0c.8-.39,1.54-.78,2.22-1.18C299.81,144.16,299.27,144.56,298,145ZM443.83,62.55a5.66,5.66,0,0,1-1.43-.13l1.45.07S443.84,62.53,443.83,62.55ZM364.08,75.47H364l.32-.17A1.25,1.25,0,0,1,364.08,75.47Zm28.23,14.14.19,0,0,0Zm-52.24,8.6h0Zm-60.44-6.77a2,2,0,0,1,.45-1.13C280.26,90.7,280.16,91.08,279.63,91.44ZM277.69,87s0-.06,0-.09h.08Zm1,11.49.35,0-.29,0Zm119.88-13,.78-.93a6.36,6.36,0,0,1,2.15.16C400.32,85,399.35,85.27,398.58,85.49ZM237.69,100l-.59,0,.47-.15Zm0,0v0l.13,0Zm.84,13.4s0,0,0,0v0h0l0,0,0,0,0,0a0,0,0,0,1,0,0Zm59.56,5.8.31,0a1.6,1.6,0,0,1-.3.08S298.12,119.22,298.11,119.21Zm139.48-50.1a1.14,1.14,0,0,0-.09-.3l.51,0A1.6,1.6,0,0,1,437.59,69.11ZM214.91,113.89a4.6,4.6,0,0,1-1.76.43c-1.16-.74-1.68-1.32-2.4-1.81A7.57,7.57,0,0,1,214.91,113.89Zm98,.53h0c-.12.07-.2.15-.31.22l-.78-.09C312.16,114.5,312.51,114.45,312.89,114.42Zm95.49-37.17q1-.45,1.77-.9A7.29,7.29,0,0,1,408.38,77.25ZM439,73l-.42.11ZM284.57,71.83v.07h0l-.1,0ZM165.91,80l-.14,0,.16,0Zm-1.23-.32-.07-.06h.07Zm-16.82,9.62-.21.09a.06.06,0,0,0,0,0ZM185.55,114c-.25-.09-.51-.19-.75-.3C185.08,113.79,185.34,113.89,185.55,114Zm15.92,3.82a.61.61,0,0,1,0,.19l-.34-.3Zm-2.86,11.65h0c-.1.12,0,.19.15.23l-.41,0h0C198.44,129.6,198.53,129.54,198.61,129.46Zm28-1.79a2,2,0,0,0,.09.2l-.28-.16ZM195.88,87.23h0l-.36,0,.14-.07ZM164.7,79.61h0Zm-21.92,9-.27.08.24-.09.11,0Zm201.81,43.95.12,0a.83.83,0,0,1-.34,0A1.12,1.12,0,0,0,344.59,132.54Zm-31.76-99-.25-.07.23,0h0Zm-3.95,1.5a6.68,6.68,0,0,1,2.52-1.29A7,7,0,0,1,308.88,35.08Zm-83.64,107.2.39.13a2.3,2.3,0,0,1-.77-.07Zm53.9-4.95a6.92,6.92,0,0,1,2,.53q-1.75-.21-3.66-.3A4.67,4.67,0,0,1,279.14,137.33Zm6.62,8.44.16,0-.16,0Zm134.4-62.89a4.14,4.14,0,0,1,.47-.23h.53Zm57.84-48a2.21,2.21,0,0,1,.53.23,1.34,1.34,0,0,1,.21.2c-.25-.13-.52-.25-.82-.37ZM253.6,154.93a1.08,1.08,0,0,1,.19,0l-.12,0Zm265-108.63.09,0h-.08Zm-118.09-4h0l-.22-.08.22,0v.1Zm-5.34-17-.81,0a0,0,0,0,0,0,0l.29-.11A4.26,4.26,0,0,0,395.13,25.33ZM102.27,75.66a5.42,5.42,0,0,1,.73.22A6.49,6.49,0,0,1,102.27,75.66Zm84.78,55.15a2,2,0,0,0-.14.3,14.56,14.56,0,0,0-1.55.07C185.93,131.07,186.5,131,187.05,130.81Zm74.51,22.55.08,0h0l-.06,0ZM266,155a8.29,8.29,0,0,1-2.91-.32C264,154.8,265,154.91,266,155ZM418.32,41.15h-.09l.09,0ZM372.9,22.54l0-.12.29.07ZM205.07,50a16.79,16.79,0,0,1-3.86.67,12.82,12.82,0,0,0,3-1.42C205.1,49.37,205.6,49.56,205.07,50Zm-57,13.11-.23,0,0,0Zm-29,24.2a.25.25,0,0,1-.13-.09,1,1,0,0,1,.17.1ZM350.78,22.39h-.22l.09,0ZM259.35,37.88h-.05v0Zm-131,39.76h0c.75.4-1,1.22-2.94,1.43-1.73.19-2.36,0-2.65-.33Z"/></g></g></svg>