<svg xmlns="http://www.w3.org/2000/svg" width="198.01mm" height="93.48mm" viewBox="0 0 561.3 265"><defs><style>.cls-1{fill:#89c257;}</style></defs><g id="レイヤー_2" data-name="レイヤー 2"><g id="レイヤー_1-2" data-name="レイヤー 1"><path class="cls-1" d="M558.26,92.31h0l-.12-2.76a32,32,0,0,1,.09-3.39c.48-4.18-5.9-5.81-9.26-8.55-2.7-2.21-7.31-1-11.35-.85-10,.26-11.56-1.69-5.67-6.79a7,7,0,0,0,1.27-2h0c9.63-2.83,18.39-6,18.64-12.65,0-.42.65-.88.94-1.33,3.47-5.26,3.5-5.36-7-5.35-4.87,0-9.25-.56-11.93-2.45C529.45,43.08,523.35,41,517.53,39,510.07,36.35,502,33.87,492,34c-15.77.25-31.39.62-46.64,5.82-7.9,2.7-16.91,4.15-25,6.83-2.16.72-4.95.76-7.46,1.12h0c-1.39-1.16-4-1.27-6.12-1.8-.65-3.1-.52-6.31-2.51-9.22-5-7.35-17.83-7.3-30.1-7.79l-8.4-1.45h0l-.33-.13c-.91-1-2.49-1.3-4.58-1.09l-2.81-1c-.22-.54-.44-1.08-.65-1.62h0c.16-.73.33-1.45.5-2.17,7.72-2.79,15.51-5.54,19.42-10.45,7.84-2.54,11.64-6.9,19.34-10.87C385.32-1,379.49,2.64,373.24,5.58h0c-8.36,1.79-14.64,5.59-22.31,8h0c-8.32,2-16.86,3.75-24.47,6.77l-2.38.7-3.22,1.39h0c-5.73,2-12.19,3.22-17.09,6h0c-22.47,6.59-45.4,12.61-67.24,20-4.47.86-8.74,1.93-11.91,4.11-3.57.55-7.33.79-10.08,2.6h0c-2.67.46-5.46.76-7.36,2.19-2.83.36-5.61.78-7.58,2.24h0a9.2,9.2,0,0,0-4.85,1.8h0a13.86,13.86,0,0,0-7.29,2.41c-15.6,4-30.5,8.76-45.27,13.77-6,2-11,5.31-18.1,6-4.3.41-7.16,1.51-9.5,3.5s-5.63,3-9.28,4c-5.84,1.71-11.32,3.9-17,5.88h0a15.93,15.93,0,0,0-7.13,3.54c-4.11,1.35-8.45,2.54-10.67,5.11h0l-1.94,1.42L66.16,109l-.16,0c-3.09.51-4.82,2.13-7.36,3-10.76,3.69-17.14,8.3-15,15,.12.41-.19.89-.3,1.34-.11,7.75-.11,7.75,13.34,9.17.77.08,1.59.09,2.38.13h0l2.33,1.07h0c1.85,2.66,1.26,5.07-4.16,7-6.52.59-9.36,4-14.2,5.95h0c-8.86,1.69-15.86,5.22-18.64,9.67a15,15,0,0,0-1.57,10.8c.84,4.13-1.94,7.1-6.82,10.08-1.58,1-2.86,1.85-3,3.07h0c-2.21,2.78-3.7,5.6-9.94,7.15-3.52.88-4,2.76-1.16,4.5,8.17,5,17.6,8.54,30.57,10,8.34.93,15,.92,21.82-2.77h0c11.74-4.74,23.58-9.38,36.87-12.49l.08,0c2.23-.2,4.28-.58,5.56-1.81h0c7.22-1.24,13-4.11,19.31-6.31l9.57-.91h0c.27,3.13-4.53,4.27-8.32,5.88-5.82,2.47-12.75,4.37-15.49,8.52h0c-.53.88-1.7,1.87-1.49,2.63,1.33,4.73-3.09,7.81-10.52,10.59-4.29,1.61-8.69,3.51-11.36,6.18-3.63,1.44-7.58,2.66-10.1,4.83-1.34,1.16-2,2.75.52,2.71,5.47-.08,6,3.36,10.85,3.5h0c8.21,1.53,16-.6,23.82-2.65,4.74-1.24,9.28-3.84,15-2.58-.6,3.74-7.46,4.86-10,7.55A323.76,323.76,0,0,0,79,243.76L41.06,261.42c19,.2,32.26-6,46.73-8.88l1.26-.12,1.25-.23c3,0,5.91-.39,8-2h0c4.89.19,8.89,0,13.27-2.71,4.85-3,11.88-4.75,18.55-6.44h0c3.21,1,5.93.3,9.14-1a105,105,0,0,1,22.3-6.91c7-1.24,15.76-2,20.54-7,2.22-2.32,8.21-2.42,12.8-1.8h0a1.45,1.45,0,0,0,.8.93h0c-4.92,6-1.67,12.81-10.26,18.59-1.36.92-.2,2.18.6,3.2a15.18,15.18,0,0,0,8.5,5.89c3.52,1,6.85,2.16,6.85,4.79,0,2.92.54,5.55,7.91,4.91,2.67-.23,4.37.92,6.51,1.46a27.74,27.74,0,0,0,18.76-1.46,7,7,0,0,0,1-.48c11.58-3.19,22.6-6.91,32.41-11.79a8.85,8.85,0,0,0,2.14-.45l16-5.12a29.59,29.59,0,0,0,3.7-1.19h0c3.79-1.15,7.89-2.07,11.31-3.51,7.57-3.18,18.09-3.33,23.84-8.28l2.25-.87a12.83,12.83,0,0,1,3-1.36c17.52-3.39,31.23-10.57,46.35-16.34,6.09-.9,12.83-1.26,14.8-5.74,1.93-.41,4-.68,5.13-1.86a1.92,1.92,0,0,0,.24,0A20.14,20.14,0,0,0,407,201.84a35.13,35.13,0,0,0,15.77-5.09c4.37-2.75,12.27-.33,15.77-4.27,12-1.26,21.58-6.47,33.35-8.28a7.64,7.64,0,0,0,6.49-5.07c2.37-7.64-3.69-14.13-16.45-16.35-5-.87-9.24-2.32-14-3.34h0c0-2.86,4.21-3.81,7.91-5.25,5.95-2.3,6.43-3.72,2-6s-8.46-4.88-16-4.9c-5.13,0-7.61-2.3-8.25-4.79-.85-3.29,6.25-1.73,8-3.62.21-.22.44-.43.66-.64h0a33.33,33.33,0,0,1,8.91-2.79c2.94-.43,5.69-1,6.76-2.91h0c5.66-1,11.82-1.32,15.63-4.8,1.76-1.62,4.7-1.83,7.92-1.65,5.89.33,11.92.39,13.41-4.41.31-1,1.92-1.74,3.76-1.42,6,1,9.58-1.16,12.85-3.62s7.48-3.12,12.36-3.56c8-.72,16-1.77,20.53-6.55a3.58,3.58,0,0,0,2.41-1.85l4.71-.78,2.56-.38,1.26,0,1.21-.29h0C564.24,96.84,560.87,94.58,558.26,92.31ZM113.2,129l.06,0-.37-.06Zm1.7.71.22,0-.09.05Zm153.81-75h0l.07,0h.05l-.12.07Zm37-13.87Zm0,0h0ZM138.39,131.35l0,0,.1-.06h.07Zm161.47,76.31-.12.06-.1-.09-.06,0c.76-.56,1.46-1.14,2.11-1.72C301.58,206.45,301.09,207,299.86,207.66ZM438.13,87.79a4.6,4.6,0,0,1-1.45-.16l1.47.07A.29.29,0,0,0,438.13,87.79Zm-78.67,20h-.1l.3-.24A2.05,2.05,0,0,1,359.46,107.77Zm29.62,19.44.19.06,0,0Zm-51.53,13.28h0Zm-61.18-8.31a3.37,3.37,0,0,1,.33-1.61A1.4,1.4,0,0,1,276.37,132.18Zm-2.38-6.3a.27.27,0,0,1,0-.13h.08Zm2.11,16.27a2.18,2.18,0,0,1,.35,0l-.29.07ZM395,121.24c.24-.45.47-.9.69-1.33a4.72,4.72,0,0,1,2.17.18C396.67,120.55,395.72,120.92,395,121.24Zm-159.82,23.9-.58.09A4.73,4.73,0,0,0,235,145Zm0,.05v0l.12-.08A.68.68,0,0,1,235.17,145.19Zm2.12,19v0a0,0,0,0,1,0,0h0l0,0s0,0,0,0a.06.06,0,0,0,0,0Zm60.23,7,.3-.06a1.22,1.22,0,0,1-.3.13A.16.16,0,0,1,297.52,171.13Zm135-73.92a2.21,2.21,0,0,0-.12-.42l.51,0A1.68,1.68,0,0,1,432.5,97.21ZM213.66,165.35a3.46,3.46,0,0,1-1.73.64c-1.23-1-1.8-1.83-2.58-2.51C211.16,163.74,212.73,164.23,213.66,165.35ZM311.87,164h0c-.11.11-.18.22-.28.33l-.79-.12C311.14,164.16,311.49,164.09,311.87,164ZM404,109.36a20.28,20.28,0,0,0,1.69-1.32C405.56,108.38,404.68,108.89,404,109.36Zm30.26-6.68a3.89,3.89,0,0,1-.41.16Zm-154.81,1.61a.38.38,0,0,0,0,.1h0l-.1-.07Zm-118.11,14-.15-.06.17,0Zm-1.26-.43s0-.06-.08-.08h.07Zm-15.94,14-.2.13a.43.43,0,0,0,0-.05Zm40.11,34.24c-.27-.13-.53-.27-.78-.41A7,7,0,0,1,184.25,166.11Zm16.31,5.07c0,.1,0,.19,0,.28-.12-.15-.25-.29-.37-.42A2.44,2.44,0,0,1,200.56,171.18Zm-1.76,16.58h0c-.08.18,0,.28.17.33l-.41,0h0A1.68,1.68,0,0,0,198.8,187.76Zm27.94-3.13a1.82,1.82,0,0,0,.11.28,1.7,1.7,0,0,1-.3-.23ZM192.05,128h0l-.35.07.13-.11Zm-32-10.15h0ZM139,131l-.26.12L139,131l.11,0Zm206.37,58,.12,0a.58.58,0,0,1-.33.08ZM304.14,49.49l-.26-.1.22-.07h0Zm-3.82,2.21a6,6,0,0,1,2.4-1.88A6.28,6.28,0,0,1,300.32,51.7ZM226.7,205.36l.4.18a1.87,1.87,0,0,1-.77-.08A1.86,1.86,0,0,1,226.7,205.36Zm53.52-8.15a6,6,0,0,1,2,.71,33.22,33.22,0,0,0-3.7-.34A3.21,3.21,0,0,1,280.22,197.21ZM287.66,209l.16,0-.16,0Zm128.68-91.94a4.38,4.38,0,0,1,.45-.33h.53C417,116.85,416.67,117,416.34,117.09Zm53.4-69.27a2,2,0,0,1,.54.3,1.78,1.78,0,0,1,.23.28,9.54,9.54,0,0,0-.85-.49ZM256.31,222.68l.19,0-.11.06ZM511.46,63.18l.09,0h-.08ZM392.76,60h0a1.63,1.63,0,0,1-.23-.11l.21,0s0,.1,0,.14Zm-7-23.94a5.72,5.72,0,0,1-.8,0l0,0,.28-.17A3.2,3.2,0,0,0,385.8,36.06ZM97.17,113.54a4.3,4.3,0,0,1,.76.3A5,5,0,0,1,97.17,113.54Zm90.17,76.37c-.05.15-.07.28-.11.42a10,10,0,0,0-1.54.14C186.25,190.3,186.81,190.12,187.34,189.91Zm76.8,30.38a.16.16,0,0,1,.08,0h0l0,0Zm4.63,2.26a6.18,6.18,0,0,1-2.94-.41C266.68,222.29,267.68,222.42,268.77,222.55ZM410.54,58h-.09l.09,0ZM363.27,32.59c0-.06,0-.12,0-.17l.3.09ZM197.74,75.07a12.75,12.75,0,0,1-3.81,1,10.69,10.69,0,0,0,2.9-2.08C197.7,74.13,198.22,74.38,197.74,75.07ZM141.91,94.84l-.22,0s0,0,0,0Zm-26.78,34.91a.4.4,0,0,1-.13-.13l.18.13Zm226-96.92h-.22l.09,0ZM251,56.7l0,0,0,0ZM123.47,115.8s0,0,0,0c.79.54-.94,1.74-2.81,2.08-1.71.31-2.36,0-2.68-.41C120.18,116.81,122,116.28,123.47,115.8Z"/></g></g></svg>