<svg xmlns="http://www.w3.org/2000/svg" width="192.08mm" height="83.87mm" viewBox="0 0 544.47 237.73"><defs><style>.cls-1{fill:#68c6e2;}</style></defs><g id="レイヤー_2" data-name="レイヤー 2"><g id="レイヤー_1-2" data-name="レイヤー 1"><path class="cls-1" d="M13.07,15.84h0l-.94,1.7a17.41,17.41,0,0,1-1.35,2c-2,2.27,3,6.21,4.93,9.41,1.55,2.57,6.09,4,9.69,5.77,9,4.5,9.57,6.38,2.44,6.7A5.49,5.49,0,0,0,26,42h0c-9.57-2.78-18.5-4.95-21.23-1.08-.17.25-.91.23-1.34.36-5,1.54-5.11,1.59,4.18,6.46,4.3,2.26,8,4.63,9.6,7,2.7,3.91,7.31,8,11.67,11.88,5.59,5,11.78,10.27,20.68,14.82,14,7.16,27.94,14.18,43.35,18.14,8,2,16.5,5.36,24.66,7.51a66.54,66.54,0,0,1,7,2.79h0c.8,1.34,3.06,2.61,4.72,3.91-.6,2.16-1.93,4-1.27,6.69,1.67,6.73,13,12.64,23.62,18.62l6.87,4.76h0l.24.23c.42,1,1.7,1.93,3.63,2.78l2.11,1.88c0,.43,0,.85,0,1.27h0l-1.26,1.06c-7.87-1.91-15.78-3.88-21.09-2.75-7.87-2.12-12.88-1.27-21.17-2.47,9.49,6,16,6.52,22.64,7.65h0c8.06,2.8,15,3.44,22.72,5.53h0c8.11,2.64,16.29,5.57,24.15,7.29l2.37.69,3.36.66h0c5.8,1.48,12,3.73,17.35,4.32h0c22.32,6.48,44.83,13.51,66.89,19.21,4.27,1.56,8.44,2.91,12.06,3.07,3.36,1.33,6.77,2.92,9.88,3.12h0c2.52,1,5.1,2.07,7.31,2.1,2.64,1.09,5.26,2.14,7.54,2.17h0a12.44,12.44,0,0,0,5,1.18h0a18.75,18.75,0,0,0,7.34,1.93c15.27,4.86,30.23,8.9,45.16,12.76,6.06,1.56,11.76,1.94,18.23,4.81,3.95,1.75,6.89,2.42,9.71,2.31s6.09.83,9.72,1.88c5.8,1.69,11.46,2.92,17.17,4.34h0a20.47,20.47,0,0,0,7.64,1.19c4.13,1.1,8.41,2.4,11.35,1.89h0l2.25,0h2.84a.69.69,0,0,0,.13.11c2.91,1.13,5,1,7.63,1.61,10.88,2.78,18.26,3,18.95-2,0-.3.51-.45.77-.67,3-4.58,3-4.58-8.3-11.67-.65-.4-1.37-.79-2.06-1.18h0l-1.66-1.73h0c-.63-2.45.81-3.62,6.31-2.26,6,2.67,9.8,1.92,14.79,3h0c8.45,3.09,16,4.23,20.1,2.86a8.34,8.34,0,0,0,5.46-5.74c.83-2.86,4.4-3.35,9.83-2.87,1.76.15,3.23.22,3.83-.44h0c3-.64,5.39-1.63,11.48.33,3.43,1.11,4.56.2,2.72-2.15-5.32-6.78-12.3-13.27-23.2-20.15-7-4.43-12.86-7.49-20.3-8.46h0c-12.15-2.6-24.35-5.32-37.26-9.62l-.08,0c-2-.91-4-1.63-5.59-1.5h0c-6.84-2.61-13-3.55-19.43-5.18l-8.79-3.89h0c.95-2,5.62-.46,9.57.34,6.07,1.22,12.91,3.29,16.9,2.08h0c.8-.29,2.2-.34,2.3-.89.61-3.45,5.68-3.24,13.29-1.46,4.4,1,9,1.93,12.36,1.58,3.75.82,7.7,1.91,10.74,1.78,1.62-.07,2.8-.72.57-1.86-4.86-2.49-4-4.81-8.26-7.12h0c-6.66-4.73-14.3-7-22-9.47-4.65-1.46-9.64-2-14.16-5.38,1.94-2,8.42.55,11.71.13,10.8,2.24,21.19,3.93,31.31,5.24l40.16,7c-16.73-8.95-30.73-11.37-44.59-16.35l-1.16-.52-1.19-.44c-2.71-1.39-5.36-2.51-7.8-2.5h0c-4.25-2.38-7.86-4.11-12.74-4.53-5.4-.47-12.28-2.66-18.8-4.75h0c-2.44-2.1-5.12-2.93-8.45-3.62a143.49,143.49,0,0,1-22.29-6.21c-6.62-2.48-14.67-6.09-20.79-5.31-2.84.36-8.16-2.36-12-4.86h0a1.08,1.08,0,0,0-.35-.92h0c6.62-1.35,6.31-6.89,16.07-6.37,1.55.08,1-1.22.68-2.19a14.59,14.59,0,0,0-5.27-7.47C392,86.2,389.52,84,390.5,82.38c1.07-1.76,1.63-3.56-5.12-6.6-2.45-1.1-3.51-2.58-5.19-3.89a38.79,38.79,0,0,0-17.1-7.83,9.55,9.55,0,0,0-1.07-.18,247.26,247.26,0,0,0-33-8,12.34,12.34,0,0,0-2.06-.72l-16.05-4.35a38,38,0,0,0-3.71-1h0c-3.78-1.07-7.74-2.42-11.31-3.15-7.88-1.6-17.22-6.39-24.17-6.1l-2.31-.52a16.7,16.7,0,0,1-3.17-.58c-16.75-6.1-31.55-8.16-47.08-11.72-5.72-2.28-11.8-5.19-15.23-3.42-1.86-.65-3.8-1.46-5.23-1.27l-.22-.11A26.84,26.84,0,0,0,188,20.43a47.87,47.87,0,0,0-15.83-4.27c-4.9-.38-11-5.49-15.54-4.76C145.52,6.59,135.09,5.27,124,.89c-3.45-1.36-6.16-1-7.65,0-5,3.47-2.08,10.17,8.33,17.41,4.08,2.84,7.29,5.67,11.08,8.49h0c-1.12,1.69-5.15.32-9-.54-6.12-1.38-7.07-.75-4,2.68S128.43,35.8,135,39.29c4.52,2.39,5.84,4.91,5.47,6.7-.5,2.36-6.17-1.86-8.44-1.55l-.82.07h0a46.11,46.11,0,0,1-8.92-2.46c-2.76-1.11-5.42-2-7.06-1.39h0c-5.39-2-10.93-4.69-15.61-4.38-2.17.15-4.84-1.08-7.62-2.68C87,30.67,81.67,27.83,78.55,30c-.66.46-2.36.15-3.86-.89A20.48,20.48,0,0,0,62,25.33c-3.81,0-7.78-1.6-12.25-3.6-7.31-3.27-14.77-6.35-20.59-5.6a4,4,0,0,0-2.83,0L21.86,14.4l-2.41-1-1.12-.56-1.17-.38h0C9.51,10.35,11.63,13.27,13.07,15.84Zm406.6,184.43,0-.06.3.21Zm-1.24-1.22-.17-.13.1,0ZM254.37,172.58h-.09l0,0h.12Zm-37.91-8.87Zm0,0h0Zm181.86,23.46,0,0h-.11l-.07,0ZM284.7,66.63l.13,0,.05.1.05,0c-.89,0-1.73,0-2.52,0C282.72,66.55,283.38,66.43,284.7,66.63ZM117.37,74.25a6.09,6.09,0,0,1,1.21.76l-1.27-.72Zm77,24.52.09,0h-.36ZM175.55,73.4l-.15-.12h0ZM226,89.35h0Zm50.85,33.34a1.93,1.93,0,0,1-.91.81C276,123.07,276.25,122.78,276.89,122.69Zm-.29,4.88a.15.15,0,0,1,0,.09l-.07,0Zm4.29-10.72-.3-.17.28.09A.31.31,0,0,1,280.89,116.85ZM168.09,74.24l-1.11.48a6.52,6.52,0,0,1-1.85-1.12C166.34,73.87,167.31,74.09,168.09,74.24Zm150.06,59.81.56.22c-.18,0-.34-.06-.49-.07A1,1,0,0,0,318.15,134.05Zm0,0,0,0H318Zm5.31-12.34,0,0v0h0l0,0ZM273,89.58l-.29-.11.31.06S273,89.56,273,89.58ZM125.89,71.22a1,1,0,0,0,0,.3l-.46-.21A1.55,1.55,0,0,1,125.89,71.22Zm218.87,60.71a4.47,4.47,0,0,1,1.77.41c.7,1.19.9,1.93,1.33,2.7A7.56,7.56,0,0,1,344.76,131.93ZM257.6,87.17h0l.38-.07c.21.15.44.31.65.44C258.29,87.43,258,87.31,257.6,87.17Zm-102-10c-.7,0-1.36,0-2,0A7.36,7.36,0,0,1,155.63,77.16Zm-29.22-10,.42.09ZM263.62,138l0-.06h0l.07.08Zm109.53,46.37.11.11-.14-.11Zm1,.84,0,.09-.06,0Zm19.35-1h.22s0,0,0,0ZM371,145.11c.19.2.37.4.53.6C371.33,145.5,371.15,145.3,371,145.11Zm-12.47-10.6a.58.58,0,0,1,.08-.18,4.08,4.08,0,0,0,.17.42A2.89,2.89,0,0,1,358.53,134.51Zm7.81-9.11h0c.14-.07.07-.19,0-.28l.35.22h0A1.91,1.91,0,0,0,366.34,125.4Zm-25.83-11.08a.83.83,0,0,0,0-.22,1.67,1.67,0,0,1,.18.28Zm9.19,50h0l.33.13h-.16Zm24.36,20.9h0Zm23.62,1.89.27.05-.25,0-.11,0ZM237.52,56.67l-.08-.08a.75.75,0,0,1,.32.1ZM221.12,159.3l.19.18-.22-.06h0Zm4.2.45a6.76,6.76,0,0,1-2.83,0A6.93,6.93,0,0,1,225.32,159.75Zm123.07-57.82-.29-.29a2.34,2.34,0,0,1,.65.41A3,3,0,0,1,348.39,101.93ZM298.08,82a7,7,0,0,1-1.54-1.37c1,.65,2,1.3,3.14,1.92A4.44,4.44,0,0,1,298.08,82ZM296,71.47l-.13-.1.14.09A0,0,0,0,0,296,71.47ZM147.67,66.82h-.52l-.47-.24ZM74.36,83.51a2,2,0,0,1-.37-.44,1.07,1.07,0,0,1-.09-.27c.16.22.35.45.56.69Zm254.45-5.67-.18-.07.12,0ZM43.35,55l-.06-.07.08,0Zm103.54,57h0l.16.17-.2-.08,0-.09ZM144,129.47c.26.11.51.23.73.34v0l-.31,0A3.23,3.23,0,0,0,144,129.47ZM428,217a7.24,7.24,0,0,1-.55-.53A4.69,4.69,0,0,1,428,217Zm-50.69-87.52.26-.2q.62.32,1.41.63C378.38,129.7,377.82,129.55,377.27,129.43ZM321,75.64h0Zm-3.23-3.5a8.14,8.14,0,0,1,2.44,1.61C319.5,73.26,318.67,72.72,317.76,72.14ZM130.45,104.87h0l.06,0-.09,0ZM162.55,142l-.08.09-.23-.19Zm162.13,51.34a17.28,17.28,0,0,1,3.75,1.15,12.87,12.87,0,0,0-3.35-.11C324.36,193.92,324,193.52,324.68,193.34Zm56.73,14,.21.09h0Zm36.84-8.47a.28.28,0,0,1,.06.14.91.91,0,0,0-.11-.16Zm-236-46.78a1.18,1.18,0,0,1,.19.11h-.09Zm88.56,27.51h0v0ZM405.61,203.4a0,0,0,0,0,0,0c-.49-.69,1.49-.61,3.27.06,1.63.61,2.1,1.07,2.21,1.48Z"/></g></g></svg>