<svg xmlns="http://www.w3.org/2000/svg" width="123.89mm" height="171.8mm" viewBox="0 0 351.18 486.99"><defs><style>.cls-1{fill:#2953a4;}</style></defs><g id="レイヤー_2" data-name="レイヤー 2"><g id="レイヤー_1-2" data-name="レイヤー 1"><path class="cls-1" d="M27.13,3.68h0l-1.79.77a19.22,19.22,0,0,1-2.3.72c-3,.55-1.46,6.75-1.92,10.46-.36,3,2.35,6.87,4.07,10.52,4.28,9.05,3.6,10.91-2.21,6.77a5.54,5.54,0,0,0-1.84-.68h0c-5.82-8.09-11.51-15.31-16-13.94-.29.08-.85-.39-1.27-.55-4.93-1.9-5-1.9-.7,7.67,2,4.42,3.41,8.55,3.24,11.43-.29,4.74.85,10.76,1.86,16.55,1.29,7.41,2.94,15.34,7.14,24.42,6.61,14.28,13.24,28.39,22.93,41,5,6.55,9.68,14.4,14.78,21.12a67.12,67.12,0,0,1,3.79,6.52h0c-.2,1.54.79,3.94,1.3,6-1.8,1.33-4,2-5.12,4.48-2.84,6.32,2.42,17.95,7.1,29.22q1.24,4,2.47,8h0l.06.33c-.29,1.06.15,2.57,1.14,4.43.17.93.33,1.86.5,2.79l-.82,1h0l-1.65.06c-5-6.35-10-12.79-14.9-15.17-4.9-6.52-9.36-8.94-15.15-15,3.78,10.57,8.59,15,13.11,20h0c4.6,7.18,9.7,12,14.47,18.37h0c4.75,7.09,9.39,14.44,14.52,20.64l1.44,2c.74.87,1.49,1.73,2.24,2.6h0c3.66,4.74,7.13,10.32,11,14.11h0c13.57,18.87,27,38.28,40.8,56.38,2.4,3.86,4.86,7.49,7.61,9.85,1.82,3.12,3.52,6.48,5.85,8.55h0c1.4,2.32,2.74,4.79,4.47,6.17,1.4,2.49,2.81,4.92,4.59,6.36h0a12.27,12.27,0,0,0,3.18,4h0a18.48,18.48,0,0,0,4.59,6.05c9,13.25,18.3,25.65,27.67,37.9,3.81,5,8.06,8.78,11.38,15,2,3.81,3.94,6.15,6.22,7.81s4.28,4.4,6.49,7.47c3.53,4.91,7.22,9.37,10.84,14h0a20.54,20.54,0,0,0,5.28,5.65c2.57,3.41,5.14,7.08,7.76,8.49h0l1.74,1.43,2.23,1.75,0,.17c1.6,2.68,3.39,3.87,5,6,6.85,8.9,12.54,13.6,16.16,10.12.22-.22.67,0,1-.05,5.21-1.74,5.21-1.74.66-14.31-.26-.72-.59-1.47-.89-2.2h0l-.24-2.38h0c1-2.31,2.87-2.35,6.37,2.11,3,5.79,6.52,7.55,9.77,11.51h0c4.74,7.65,10,13.18,14.06,14.64a8.33,8.33,0,0,0,7.84-1.14c2.41-1.75,5.53.07,9.51,3.8,1.29,1.21,2.4,2.16,3.28,2h0c2.76,1.35,5.25,2,8.83,7.34,2,3,3.47,3,3.47,0,0-8.61-1.49-18-5.83-30.17-2.79-7.8-5.5-13.83-10.76-19.18h0c-8-9.55-15.89-19.21-23.39-30.56l-.05-.06c-1-2-2.14-3.75-3.48-4.63h0c-3.77-6.28-8-10.81-12.09-16.06q-2.26-4.24-4.52-8.49h0c2-1,4.7,3.11,7.32,6.17,4,4.71,8.13,10.55,12,12.06h0c.81.27,1.94,1.1,2.36.72,2.61-2.33,6.47,1,11.36,7.05,2.83,3.52,5.89,7.07,8.76,8.87,2.44,3,4.87,6.25,7.35,8,1.32.94,2.65,1.16,1.6-1.12-2.3-4.95-.23-6.28-2.11-10.7h0c-2.33-7.82-6.91-14.36-11.5-21-2.76-4-6.35-7.52-7.82-13,2.74-.35,6.29,5.63,9.14,7.33,7.12,8.42,14.26,16.16,21.41,23.43l27.27,30.3c-7.64-17.35-17.17-27.9-25-40.37l-.59-1.12-.67-1.08c-1.27-2.77-2.67-5.28-4.6-6.78h0c-1.87-4.49-3.65-8.08-7.23-11.42-4-3.71-8-9.67-11.87-15.33h0c-.62-3.17-2.22-5.47-4.41-8.07a143.49,143.49,0,0,1-13.72-18.64c-3.68-6-7.8-13.84-13.09-17-2.46-1.46-5-6.89-6.44-11.21h0a1,1,0,0,0,.3-.94h0c6,3,9.22-1.53,16.58,4.9,1.17,1,1.53-.34,1.88-1.3a14.58,14.58,0,0,0,.46-9.13c-.77-3.44-1.36-6.74.39-7.37,1.93-.74,3.48-1.81,0-8.36-1.24-2.38-1.17-4.2-1.68-6.27a38.72,38.72,0,0,0-8.64-16.71,10.61,10.61,0,0,0-.72-.8,248.16,248.16,0,0,0-21.1-26.66,12.78,12.78,0,0,0-1.18-1.83l-9.95-13.33c-.71-1.07-1.52-2.13-2.3-3.08h0c-2.32-3.17-4.61-6.68-7-9.45-5.21-6.12-9.61-15.65-15.26-19.71l-1.5-1.83a17.32,17.32,0,0,1-2.13-2.42C202.35,163.28,192,152.52,182,140.15c-3.1-5.33-6.09-11.38-9.88-12.1-1.06-1.65-2.09-3.48-3.33-4.22a2.14,2.14,0,0,1-.1-.22,27.14,27.14,0,0,0-6.69-8.45A48,48,0,0,0,152.12,102c-3.62-3.33-5.23-11.09-9.3-13.33-5.73-10.61-13.13-18.09-19.14-28.36-1.87-3.19-4.22-4.59-6-4.69-6.06-.34-7.92,6.72-4.18,18.85,1.46,4.74,2.23,8.95,3.48,13.5h0c-1.92.64-4.26-2.93-6.73-6-4-4.87-5.1-5-4.8-.38s.19,8.86,3.25,15.69c2.08,4.65,1.57,7.46.17,8.63-1.85,1.56-3.7-5.26-5.69-6.42-.22-.13-.46-.3-.69-.44h0A46.42,46.42,0,0,1,97,91.7c-1.49-2.57-3-4.92-4.7-5.45h0c-3-4.89-5.71-10.43-9.59-13.07-1.8-1.22-3.14-3.84-4.34-6.81-2.18-5.43-4.6-10.93-8.41-11.14-.8,0-2-1.34-2.49-3.08a20.49,20.49,0,0,0-7.66-10.83c-3-2.39-5.14-6.06-7.42-10.39-3.74-7.08-7.71-14.11-12.76-17.1a3.94,3.94,0,0,0-2.22-1.76L34.93,8l-1.3-2.24L33.09,4.6l-.69-1h0C27.71-2.84,27.57.77,27.13,3.68Zm206.29,396a.13.13,0,0,1,0-.06,3.42,3.42,0,0,0,.11.35C233.49,399.81,233.46,399.73,233.42,399.63Zm-.22-1.71c0-.07,0-.15-.06-.21l.07.07A.71.71,0,0,1,233.2,397.92Zm-112.81-122h0l-.06-.06v0l.09.09ZM96,245.53Zm0,0h0ZM224.7,376.16h0l-.07-.07,0-.07Zm-15.09-165,.09.09a.43.43,0,0,0,0,.11v.07c-.68-.56-1.35-1.06-2-1.51C208.1,209.92,208.69,210.23,209.61,211.2ZM73.2,114a6.37,6.37,0,0,1,.48,1.35c-.15-.39-.34-.84-.55-1.35Zm45.46,66.77,0,.1-.29-.23Zm.86-31.56c0-.06,0-.12,0-.18h0Zm29.9,43.7,0,0h0Zm19.46,57.61a1.91,1.91,0,0,1-1.21.08C167.94,250.25,168.33,250.19,168.88,250.51Zm-3.23,3.66s0,.05-.07.05a.21.21,0,0,1,0-.07Zm10-5.79c0-.1-.08-.2-.12-.32l.16.24A.2.2,0,0,1,175.63,248.38Zm-62.5-103.11L112,145a6.47,6.47,0,0,1-.77-2C112,143.89,112.61,144.66,113.13,145.27ZM194.36,284.9c.09.16.19.34.3.52a4,4,0,0,0-.34-.36C194.33,285,194.35,285,194.36,284.9Zm0,0,0,0-.1-.09A.56.56,0,0,1,194.39,284.87Zm11.79-6.43h0l0,0h0l0,0,0,0h0Zm-20-56.43-.16-.26a1.8,1.8,0,0,1,.2.24S186.22,222,186.21,222ZM81.78,116.86a.77.77,0,0,0-.23.21l-.24-.46A2,2,0,0,1,81.78,116.86ZM216.62,299.64a4.64,4.64,0,0,1,1.13,1.42c-.18,1.36-.48,2.07-.62,2.94A7.49,7.49,0,0,1,216.62,299.64Zm-41-89h0l.34.18c.08.25.16.51.24.74C176,211.28,175.8,211,175.61,210.65Zm-74.09-70.77c-.54-.45-1.06-.86-1.57-1.22A7,7,0,0,1,101.52,139.88ZM84.7,114l.28.33ZM149,254.34l.07,0h0v.11ZM206.63,358.4l0,.15,0-.17Zm.23,1.24s0,.06,0,.09l0-.06Zm15.84,11.18.17.14,0,0Zm6.44-44.62c0,.27,0,.54,0,.8A5.7,5.7,0,0,1,229.14,326.2Zm-3.28-16a.59.59,0,0,1,.17-.1c-.05.15-.09.29-.13.44A2.09,2.09,0,0,1,225.86,310.17Zm11.76-2.35h0c.16,0,.17-.1.15-.23,0,.09.08.21.15.38h0A2.09,2.09,0,0,0,237.62,307.82Zm-13.49-24.66a1.15,1.15,0,0,0,.14-.17,1.84,1.84,0,0,1,0,.33A1.53,1.53,0,0,1,224.13,283.16Zm-23.61,45h0c.07.12.13.2.19.31l-.13-.09Zm6.29,31.48v0h0Zm17.42,16.06.18.2-.17-.17-.07-.09ZM178.62,174.26l0-.12a1,1,0,0,1,.19.28ZM102.4,244.93c0,.09,0,.17,0,.26,0-.07-.09-.12-.13-.19h0Zm3,2.95a6.81,6.81,0,0,1-2.24-1.74A7,7,0,0,1,105.44,247.88ZM238,278.26c0-.13,0-.26-.05-.4a2.43,2.43,0,0,1,.26.72A2.92,2.92,0,0,1,238,278.26Zm-27.3-46.72a7.07,7.07,0,0,1-.37-2c.37,1.12.79,2.27,1.28,3.45A4.39,4.39,0,0,1,210.67,231.54ZM215.5,222l0-.15a.88.88,0,0,0,.05.15ZM101.63,126.83l-.4-.33L101,126Zm-68-32.08a2.26,2.26,0,0,1,0-.57,1.42,1.42,0,0,1,.09-.27c0,.27,0,.57,0,.89ZM237.42,247.22l-.11-.16.09.09ZM26.83,53.16a.28.28,0,0,1,0-.09l0,.07ZM73.2,161.85h0c0,.08,0,.15,0,.23l-.11-.18.09-.05Zm-13.11,12c.13.25.26.49.36.72,0,0,0,0,0,0l-.22-.22C60.18,174.24,60.14,174.07,60.09,173.87Zm169.58,244a5,5,0,0,1-.11-.76A6.05,6.05,0,0,1,229.67,417.88Zm14.07-100.16h.33c.19.41.43.87.72,1.36C244.45,318.63,244.1,318.16,243.74,317.72Zm-11.12-77.05-.06-.06h0l.06,0Zm-.39-4.75a8.38,8.38,0,0,1,.94,2.78C232.91,237.88,232.6,236.94,232.23,235.92ZM64.6,146.16h0s0,.05,0,.07l-.06-.07Zm2.37,49-.12,0-.06-.3Zm96,140.41a17.16,17.16,0,0,1,2.24,3.22,12.6,12.6,0,0,0-2.58-2.15C162.32,335.85,162.28,335.32,162.93,335.59Zm36,46.06a2,2,0,0,0,.11.2l0,0Zm34.21,16.05a.24.24,0,0,1,0,.15,1.34,1.34,0,0,0,0-.2ZM76.2,215.29l.08.2-.07-.06C76.21,215.38,76.2,215.34,76.2,215.29Zm52.74,76.28,0,0v0Zm91.49,101.86v0c0-.85,1.55.44,2.54,2.06s1,2.14.82,2.53C222.45,396.18,221.35,394.67,220.43,393.43Z"/></g></g></svg>