<svg xmlns="http://www.w3.org/2000/svg" width="199.75mm" height="64.82mm" viewBox="0 0 566.22 183.75"><defs><style>.cls-1{fill:#7fc160;}</style></defs><g id="レイヤー_2" data-name="レイヤー 2"><g id="レイヤー_1-2" data-name="レイヤー 1"><path class="cls-1" d="M563.44,68h0c0-.65,0-1.29.07-1.94a17.8,17.8,0,0,1,.32-2.39c.77-2.93-5.48-4.19-8.64-6.19-2.54-1.6-7.22-.8-11.25-.8-10,0-11.41-1.39-5.19-4.88.72-.4,1-.92,1.41-1.38h0c9.79-1.82,18.74-3.89,19.44-8.58,0-.3.71-.61,1-.92,3.83-3.65,3.86-3.72-6.63-3.9-4.86-.08-9.19-.55-11.72-1.93-4.17-2.28-10.1-3.82-15.77-5.37-7.25-2-15.13-3.88-25.14-3.94-15.73-.1-31.32-.11-46.87,3.28-8.07,1.77-17.15,2.63-25.4,4.38a64.05,64.05,0,0,1-7.51.65h0c-1.32-.83-3.9-1-6-1.37-.43-2.2-.08-4.46-1.87-6.54-4.51-5.27-17.27-5.46-29.47-6L376,19h0l-.32-.1c-.83-.71-2.39-1-4.49-.85l-2.73-.73-.54-1.16h0l.65-1.52c7.88-1.83,15.84-3.63,20.07-7,8-1.65,12.08-4.66,20-7.32C397.49-.82,391.43,1.65,385,3.61h0c-8.46,1.12-15,3.68-22.79,5.27h0c-8.43,1.28-17.06,2.35-24.85,4.35l-2.43.45-3.3.92h0c-5.85,1.29-12.37,2-17.44,3.94h0C291.3,22.79,268,26.62,245.76,31.45c-4.51.53-8.84,1.2-12.15,2.69-3.59.32-7.36.42-10.23,1.65h0c-2.69.28-5.49.44-7.48,1.41-2.85.21-5.65.45-7.71,1.45h0a12.39,12.39,0,0,0-5,1.18h0a18.77,18.77,0,0,0-7.43,1.57c-15.82,2.52-31,5.63-46.07,8.9-6.11,1.33-11.38,3.55-18.45,3.9-4.31.21-7.24.94-9.71,2.3s-5.81,2-9.53,2.69c-5.94,1.1-11.54,2.54-17.29,3.84h0a20.53,20.53,0,0,0-7.36,2.37c-4.18.88-8.59,1.64-11,3.41h0l-2,1-2.54,1.27-.16,0c-3.11.3-4.94,1.42-7.54,2-11,2.41-17.65,5.55-16,10.31.1.29-.25.63-.39.94-.65,5.46-.65,5.46,12.66,6.69.77.07,1.58.09,2.37.14h0l2.26.79h0c1.65,1.91.9,3.6-4.63,4.86-6.54.3-9.61,2.69-14.57,4h0c-8.94,1-16.16,3.39-19.23,6.48a8.33,8.33,0,0,0-2.31,7.58c.55,2.93-2.42,5-7.49,7-1.64.66-3,1.26-3.23,2.11h0c-2.4,1.92-4.08,3.87-10.41,4.86-3.56.55-4.16,1.87-1.46,3.14,7.8,3.67,17,6.33,29.78,7.58,8.25.8,14.86.91,21.94-1.57h0c12-3.14,24.14-6.2,37.6-8.16h.08c2.23-.1,4.3-.34,5.67-1.18h0c7.28-.75,13.2-2.67,19.68-4.11l9.6-.47h0c0,2.21-4.81,2.93-8.7,4-6,1.63-13,2.85-16,5.73h0c-.59.61-1.82,1.28-1.66,1.82,1,3.36-3.61,5.45-11.21,7.28-4.39,1.06-8.91,2.32-11.75,4.15-3.72.95-7.74,1.74-10.4,3.23-1.41.8-2.18,1.9.33,1.92,5.46,0,5.78,2.47,10.58,2.65h0c8.07,1.23,15.93-.14,23.92-1.44,4.81-.79,9.51-2.55,15.07-1.56-.84,2.63-7.77,3.3-10.52,5.15-10.65,2.85-20.69,6-30.32,9.39L36.34,178c19,.48,32.55-3.65,47.18-5.43l1.27-.06,1.25-.15c3,0,5.92-.16,8.1-1.27h0c4.86.22,8.86.14,13.41-1.67,5-2,12.17-3.15,18.93-4.22h0c3.13.79,5.89.32,9.18-.56a144.38,144.38,0,0,1,22.7-4.47c7-.76,15.85-1.16,21-4.6,2.37-1.6,8.35-1.56,12.88-1.05h0c.06.26.3.48.73.67h0c-5.32,4.18-2.54,9-11.5,12.92-1.42.62-.35,1.53.38,2.26a14.48,14.48,0,0,0,8.06,4.3c3.44.77,6.68,1.64,6.5,3.5-.15,2,.16,3.91,7.55,3.59,2.68-.11,4.3.73,6.39,1.15a38.9,38.9,0,0,0,18.79-.7,8.79,8.79,0,0,0,1-.32,246.23,246.23,0,0,0,33.11-7.73,12.48,12.48,0,0,0,2.17-.29l16.29-3.32c1.27-.19,2.58-.48,3.77-.77h0c3.85-.75,8-1.32,11.51-2.28,7.76-2.11,18.26-2,24.33-5.41l2.3-.58a17.85,17.85,0,0,1,3.1-.9c17.7-2.09,31.85-6.9,47.32-10.7,6.14-.53,12.88-.66,15.14-3.78,2-.26,4.05-.41,5.24-1.22h.25a27.05,27.05,0,0,0,10.49-2.45,47.84,47.84,0,0,0,16.06-3.31c4.55-1.86,12.25,0,16-2.73,12-.67,21.95-4.18,33.8-5.24,3.69-.33,6-1.86,6.82-3.46,2.88-5.34-2.71-10-15.27-11.81-4.91-.7-9-1.79-13.71-2.6h0c.24-2,4.46-2.61,8.25-3.56,6.09-1.51,6.66-2.5,2.38-4.19s-8.09-3.59-15.57-3.73c-5.1-.1-7.42-1.76-7.89-3.52-.62-2.34,6.35-1.12,8.24-2.42l.69-.43h0a46,46,0,0,1,9.08-1.81c3-.25,5.74-.64,6.93-1.93h0c5.7-.64,11.86-.72,15.9-3.11,1.87-1.11,4.81-1.21,8-1,5.85.34,11.86.49,13.67-2.87.38-.7,2-1.19,3.84-.93a20.47,20.47,0,0,0,13.06-2.32c3.43-1.67,7.67-2.07,12.56-2.29,8-.37,16.05-1,20.91-4.26a4,4,0,0,0,2.54-1.26l4.74-.47,2.59-.22h1.25l1.22-.19h0C569.09,71.26,565.89,69.61,563.44,68ZM117.34,86l0,0L117,86Zm1.64.54.22,0-.1,0A.47.47,0,0,0,119,86.52Zm158.45-50.1s0,0,0,0h0l.08,0h0l-.12,0Zm37.85-9.12Zm0,0h0Zm-173,60.79s0,0,0,0l.11,0h.07ZM298,144.69l-.13,0a.71.71,0,0,0-.09-.07l-.06,0c.8-.38,1.54-.77,2.23-1.17C299.77,143.87,299.24,144.27,298,144.69Zm146-82a6.09,6.09,0,0,1-1.43-.14l1.45.07A.19.19,0,0,1,444,62.67ZM364.24,75.36h-.11l.33-.17A1.77,1.77,0,0,1,364.24,75.36Zm28.19,14.22.18,0,0,0ZM340.16,98h0ZM279.75,91.1a1.88,1.88,0,0,1,.44-1.13C280.38,90.36,280.27,90.73,279.75,91.1Zm-1.94-4.48s0-.06,0-.09h.08Zm1,11.49.35,0-.29,0ZM398.71,85.47l.78-.92a6.3,6.3,0,0,1,2.15.17C400.44,85,399.48,85.26,398.71,85.47Zm-160.93,14-.59,0a3.1,3.1,0,0,0,.46-.15Zm0,0v0l.12-.05A1.25,1.25,0,0,1,237.79,99.54ZM238.6,113a0,0,0,0,1,0,0v0h0l0,0,0,0s0,0,0,0Zm59.55,6,.3,0a1,1,0,0,1-.3.09S298.15,118.93,298.15,118.91ZM437.76,69.2a.84.84,0,0,0-.08-.29l.51,0A1.58,1.58,0,0,1,437.76,69.2ZM215,113.36a4.52,4.52,0,0,1-1.77.43c-1.15-.75-1.66-1.33-2.39-1.82A7.56,7.56,0,0,1,215,113.36Zm98,.8h0l-.3.23-.78-.1Zm95.59-36.9c.64-.29,1.23-.59,1.77-.89A7,7,0,0,1,408.53,77.26Zm30.61-4.17-.42.11ZM284.73,71.5v.07h0l-.1,0ZM166.05,79.31l-.14,0,.16,0ZM164.83,79s0,0-.08,0h.07ZM148,88.55l-.2.09s0,0,0,0Zm37.63,24.83c-.26-.09-.51-.2-.75-.3C185.13,113.18,185.39,113.28,185.6,113.38Zm15.9,3.86a.46.46,0,0,1,0,.2l-.34-.31Zm-2.88,11.65h0c-.09.13,0,.2.15.23l-.41,0h0A2.26,2.26,0,0,0,198.62,128.89Zm28-1.71.09.2a2.09,2.09,0,0,1-.28-.17ZM196,86.65h0l-.36,0,.14-.08Zm-31.15-7.71h0ZM142.9,87.86l-.27.08.24-.09.11,0Zm201.69,44.52.11,0a1,1,0,0,1-.33.05Zm-31.48-99a2,2,0,0,0-.26-.08l.23,0h0Zm-4,1.48a6.92,6.92,0,0,1,2.52-1.28A6.85,6.85,0,0,1,309.15,34.81Zm-83.94,107,.38.12a2.26,2.26,0,0,1-.76-.07A2.84,2.84,0,0,1,225.21,141.79ZM279.12,137a7.64,7.64,0,0,1,2,.53q-1.75-.21-3.66-.3A4.49,4.49,0,0,1,279.12,137Zm6.6,8.46.16,0-.17,0ZM420.29,82.92l.47-.22h.53Zm58-47.86a2,2,0,0,1,.52.23,1.07,1.07,0,0,1,.22.2c-.25-.13-.52-.25-.82-.37ZM253.53,154.51l.19,0-.11,0ZM518.8,46.62l.09,0h-.09ZM400.71,42.29h0l-.22-.09h.22v.1Zm-5.29-17a7.36,7.36,0,0,1-.8,0s0,0,0,0l.28-.11C395.05,25.23,395.22,25.27,395.42,25.3Zm-293,49.52a4.57,4.57,0,0,1,.73.22A6.49,6.49,0,0,1,102.43,74.82Zm84.62,55.39a1.92,1.92,0,0,0-.14.29,14.56,14.56,0,0,0-1.55.07C185.93,130.46,186.5,130.34,187.05,130.21ZM261.5,153s.05,0,.08,0h0l-.06,0Zm4.46,1.67a8.17,8.17,0,0,1-2.9-.34C263.9,154.41,264.89,154.52,266,154.63ZM418.57,41.19h-.09l.09,0ZM373.21,22.46a.5.5,0,0,0,0-.12l.3.07Zm-167.91,27a17.91,17.91,0,0,1-3.87.66,12.71,12.71,0,0,0,3-1.42C205.32,48.82,205.83,49,205.3,49.48Zm-57,13h-.22l0,0ZM119.21,86.55a.31.31,0,0,1-.12-.09l.17.09ZM351.08,22.24h-.22l.09,0ZM259.61,37.47h0ZM128.48,76.87h0c.75.4-1.06,1.21-2.94,1.42s-2.36,0-2.65-.34C125.13,77.52,127,77.18,128.48,76.87Z"/></g></g></svg>