<svg xmlns="http://www.w3.org/2000/svg" width="184.42mm" height="102.61mm" viewBox="0 0 522.78 290.85"><defs><style>.cls-1{fill:#f3d825;}</style></defs><g id="レイヤー_2" data-name="レイヤー 2"><g id="レイヤー_1-2" data-name="レイヤー 1"><path class="cls-1" d="M519.32,28.77h0l-.51-1.88a17,17,0,0,1-.4-2.37c-.14-3-6.49-2.37-10.1-3.33-2.9-.78-7.13,1.38-11,2.59-9.55,3-11.3,2.06-6.4-3.12a5.7,5.7,0,0,0,.93-1.74h0c8.8-4.65,16.73-9.3,16-14,0-.3.5-.79.72-1.19,2.56-4.62,2.56-4.69-7.5-1.74-4.66,1.37-8.94,2.21-11.77,1.64-4.65-.93-10.78-.63-16.64-.42C465.15,3.49,457.06,4,447.5,7c-15.05,4.59-29.94,9.22-43.77,17.1-7.18,4.08-15.59,7.61-23,11.74a67.76,67.76,0,0,1-7,2.86h0c-1.51-.41-4,.25-6.11.47-1.07-2-1.41-4.23-3.74-5.69-5.88-3.68-18.11-.07-29.92,3l-8.25,1.36h-.33c-1-.43-2.57-.2-4.54.53l-2.83.11-.85-.94h0c.06-.55.12-1.1.17-1.64,7-4.1,14-8.19,17.07-12.68,7.13-4,10.14-8,16.93-12.95-11,2.29-16,6.45-21.59,10.24h0c-7.74,3.59-13.19,8-20.18,11.82h0c-7.67,3.73-15.59,7.32-22.43,11.55-.73.38-1.46.76-2.18,1.15l-2.88,1.86h0c-5.2,3-11.2,5.65-15.48,9h0C246.08,66.72,225,77.31,205.19,88.55c-4.15,1.85-8.09,3.78-10.8,6.19-3.33,1.37-6.9,2.59-9.27,4.62h0c-2.49,1.07-5.12,2.06-6.73,3.58-2.65,1-5.25,2.12-6.92,3.68h0a12.32,12.32,0,0,0-4.38,2.6h0a18.81,18.81,0,0,0-6.63,3.72c-14.35,7.12-27.91,14.61-41.32,22.22-5.44,3.09-9.81,6.77-16.45,9.21-4.06,1.49-6.64,3.06-8.59,5.09s-4.95,3.64-8.3,5.41c-5.34,2.82-10.26,5.87-15.36,8.82h0a20.3,20.3,0,0,0-6.31,4.45c-3.74,2.08-7.72,4.13-9.47,6.53h0L53,176.2l-2,2h-.16c-2.88,1.22-4.3,2.83-6.61,4.15C34.43,187.89,29,192.88,32,196.94c.18.25-.05.68-.09,1,1,5.4,1,5.4,14.08,2.61.75-.16,1.54-.38,2.3-.57h0l2.4.08h0c2.15,1.33,1.94,3.17-3,6-6.16,2.24-8.38,5.43-12.74,8.11h0c-8.23,3.65-14.42,8-16.43,11.91a8.33,8.33,0,0,0,.06,7.93c1.4,2.63-.84,5.47-5.07,8.9-1.37,1.11-2.47,2.08-2.45,3h0c-1.71,2.55-2.74,4.92-8.48,7.74-3.24,1.59-3.42,3-.46,3.44,8.53,1.17,18.07,1,30.69-1.64,8.11-1.69,14.45-3.55,20.47-8h0c10.55-6.57,21.21-13.1,33.47-19l.08-.05c2.09-.75,4-1.6,5.06-2.81h0c6.73-2.88,11.8-6.48,17.57-9.78l9-3.32h0c.71,2.1-3.72,4.24-7.11,6.41-5.22,3.34-11.57,6.6-13.6,10.25h0c-.38.76-1.35,1.77-1,2.24,2,2.9-1.84,6.27-8.54,10.28-3.88,2.32-7.82,4.87-10,7.46-3.26,2-6.86,4-9,6.19-1.12,1.17-1.52,2.46.88,1.73,5.22-1.59,6.25.64,10.89-.62h0c8.07-1.24,15.17-4.88,22.4-8.51,4.36-2.18,8.32-5.26,13.93-6,0,2.76-6.44,5.46-8.52,8.05-9.31,5.9-18,11.91-26.14,18L48.94,290.85c18.24-5.19,30-13.18,43.41-19.24l1.2-.44,1.16-.51c2.91-.88,5.59-1.92,7.34-3.63h0c4.71-1.24,8.5-2.5,12.31-5.59,4.21-3.42,10.68-6.62,16.81-9.66h0c3.22-.18,5.72-1.46,8.6-3.27a144.05,144.05,0,0,1,20.34-11c6.48-2.81,14.78-5.82,18.63-10.63,1.79-2.24,7.51-4,12-4.84h0a1.13,1.13,0,0,0,.89.43h0c-3.83,5.57.25,9.34-7.13,15.75-1.17,1,.13,1.57,1,2a14.58,14.58,0,0,0,9,1.7c3.51-.29,6.86-.42,7.25,1.4.46,2,1.31,3.69,8.27,1.19,2.52-.91,4.32-.59,6.44-.82a38.72,38.72,0,0,0,17.73-6.26,9.31,9.31,0,0,0,.89-.61,247.4,247.4,0,0,0,29.3-17.25,12,12,0,0,0,2-.92l14.56-8c1.17-.56,2.33-1.22,3.38-1.86h0c3.46-1.86,7.25-3.65,10.32-5.6,6.78-4.33,16.82-7.38,21.61-12.42l2-1.24a16.4,16.4,0,0,1,2.68-1.78c16.28-7.26,28.35-16.07,42-24.31,5.71-2.33,12.1-4.47,13.33-8.12,1.79-.83,3.74-1.6,4.64-2.73l.24-.07a27.12,27.12,0,0,0,9.29-5.46,48,48,0,0,0,14.34-7.94c3.79-3.14,11.69-3.67,14.48-7.39C430.54,127.5,439,121.2,450,116.65c3.42-1.41,5.13-3.55,5.47-5.33,1.16-6-5.57-8.76-18.09-6.73-4.9.8-9.18,1-13.86,1.61h0c-.38-2,3.47-3.83,6.81-5.86,5.36-3.26,5.61-4.38,1-4.71s-8.8-1-16,1.08c-4.9,1.42-7.61.53-8.58-1-1.29-2,5.72-3,7.14-4.76.17-.21.36-.42.54-.62h0a46.35,46.35,0,0,1,8.12-4.44c2.75-1.12,5.3-2.32,6.05-3.9h0c5.26-2.31,11.11-4.23,14.25-7.71,1.46-1.62,4.24-2.59,7.34-3.36,5.69-1.43,11.47-3.07,12.2-6.82.15-.78,1.59-1.74,3.39-2A20.62,20.62,0,0,0,477.57,56c2.77-2.61,6.7-4.26,11.3-5.93,7.53-2.74,15-5.71,18.7-10.29,1.21-.68,1.85-1.33,2-2L514,35.91l2.4-1,1.19-.38,1.12-.54h0C525.7,30.24,522.15,29.61,519.32,28.77ZM98.84,178.87h.07l-.37.07C98.65,178.91,98.74,178.9,98.84,178.87Zm1.73,0,.22,0-.08.06Zm136.33-95s0,0,0,0h0l.07,0h0l-.11.08Zm33.42-20Zm0,0h0Zm-147,109.57s0,0,0,0l.09-.06.07,0Zm165.47,7.65-.11.07-.1,0h-.07c.65-.61,1.24-1.2,1.77-1.79C290.24,179.78,289.85,180.32,288.76,181.1Zm115-121.81a6.52,6.52,0,0,1-1.41.3c.41-.1.88-.22,1.41-.37ZM331.37,95.18l-.1,0,.26-.25C331.49,95,331.42,95.1,331.37,95.18Zm31.14,5.17h.19l0,0ZM315.13,124l0,0h0ZM255.4,135.37a1.92,1.92,0,0,1,.09-1.21C255.78,134.47,255.79,134.86,255.4,135.37Zm-3.18-3.7s-.05,0-.05-.08l.08,0Zm4.36,10.68a2.84,2.84,0,0,1,.34-.08,1.69,1.69,0,0,0-.27.13ZM367.29,94.56c.16-.38.31-.75.47-1.12a6.69,6.69,0,0,1,2.1-.48C368.81,93.61,368,94.13,367.29,94.56ZM217.84,155.89l-.55.23a4.62,4.62,0,0,0,.4-.28Zm0,0v0l.1-.09A.94.94,0,0,1,217.87,155.93Zm4.76,12.56v0h0l0,0,0,0s0,0,0,0v0Zm58.62-12.05.28-.13a1.17,1.17,0,0,1-.26.17S281.26,156.45,281.25,156.44Zm118.47-89a.83.83,0,0,0-.17-.26L400,67A1.59,1.59,0,0,1,399.72,67.4ZM200.19,175.92a4.47,4.47,0,0,1-1.56.93c-1.32-.37-2-.76-2.83-1A7.59,7.59,0,0,1,200.19,175.92ZM294,147.5h0c-.09.11-.14.2-.22.3l-.77.14C293.28,147.79,293.61,147.64,294,147.5Zm80.25-63.7c.53-.47,1-.94,1.43-1.39C375.56,82.68,374.8,83.28,374.21,83.8Zm28-13.1-.37.22A4,4,0,0,1,402.2,70.7ZM254.32,115.17a.25.25,0,0,1,0,.07h-.11ZM143.36,158h-.15l.16,0Zm-1.27.06a.24.24,0,0,0-.09,0l.07,0Zm-13.24,14.15-.16.15,0,0Zm43.32,12.5-.81-.07A6.27,6.27,0,0,1,172.17,184.69Zm16.33-1.06a.73.73,0,0,1,.07.19l-.42-.19Zm.72,12h0c-.05.15.08.18.21.18l-.4.09h0A3.15,3.15,0,0,0,189.22,195.61Zm26.27-10a1.15,1.15,0,0,0,.14.17,1.57,1.57,0,0,1-.31-.08Zm-41.36-29.55h0l-.33.15.11-.12Zm-32,1.92h0Zm-18.3,15.06-.23.15.2-.15.1-.06Zm205.8-17.59h.12a1,1,0,0,1-.31.15ZM270,70.28h-.27l.21-.11h0Zm-3.34,2.6a6.71,6.71,0,0,1,2-2A7,7,0,0,1,266.7,72.88ZM218.44,200h.41a2.53,2.53,0,0,1-.75.16Zm50-20.64a7.51,7.51,0,0,1,2.06-.09c-1.17.22-2.36.48-3.59.8A4.38,4.38,0,0,1,268.47,179.36Zm8.82,6.1h.16l-.16,0ZM387.13,85.7l.38-.36.51-.15Zm41.09-63a2.93,2.93,0,0,1,.57.06,2.09,2.09,0,0,1,.26.13c-.28,0-.57-.08-.89-.1Zm-179,181,.18-.08-.1.07Zm221.09-182h.09l-.08,0Zm-114,31.05h-.24l.2-.09,0,.1ZM346.22,38.1c-.26.1-.52.19-.76.26v0l.24-.19A3.74,3.74,0,0,0,346.22,38.1ZM81.28,172.65a4.92,4.92,0,0,1,.77,0A4.93,4.93,0,0,1,81.28,172.65Zm97.28,27.67c0,.11,0,.21,0,.32a14.89,14.89,0,0,0-1.46.53C177.57,200.89,178.08,200.61,178.56,200.32Zm77.85-.46.07-.06h0s0,0-.05.05Zm4.76.26a8.21,8.21,0,0,1-2.88.55C259.13,200.53,260.11,200.34,261.17,200.12ZM373.05,46.37H373l.08,0ZM324.17,42s0-.08,0-.12l.3,0ZM171.94,117.82a17.73,17.73,0,0,1-3.5,1.78,12.88,12.88,0,0,0,2.48-2.26C171.76,117.18,172.3,117.21,171.94,117.82Zm-50.56,29.34-.21.08a.08.08,0,0,0,0,0ZM100.8,178.85a.44.44,0,0,1-.15,0l.19,0ZM303,48.39l-.21,0,.08-.06ZM220.2,90.18l0,0h0ZM106.76,166.85h0c.83.16-.65,1.48-2.39,2.24s-2.26.69-2.63.46Z"/></g></g></svg>